<svg width="279" height="279" viewBox="0 0 279 279" fill="none" xmlns="http://www.w3.org/2000/svg">
<path d="M193.521 46.8673C190.618 38.9889 186.164 30.8692 180.452 24.5413C173.832 17.2084 165.944 10.8684 157.036 6.66223C132.69 -4.83469 102.9 -1.16686 81.8901 15.4656C73.4007 22.1861 66.4399 31.1219 61.8331 40.8774C60.3699 43.9752 59.2972 47.3946 58.2936 50.6791C57.8885 52.0048 57.8193 53.9366 56.7504 54.9445C55.053 56.546 50.8513 55.3382 48.6732 55.6709C42.3334 56.6391 35.927 58.2319 30.1589 61.1163C12.8513 69.7701 2.04741 87.3152 0.209254 106.222C-0.57871 114.327 0.961116 122.978 3.11346 130.726C7.90768 147.986 21.9682 161.216 39.4161 164.851C46.903 166.411 55.181 165.577 62.8312 165.577H79.1674C81.3804 165.577 84.3351 166.036 86.0651 164.306C88.4556 161.915 87.0785 157.978 84.0683 157.046C79.8829 155.749 73.7476 156.864 69.3657 156.864C56.8043 156.864 42.8219 158.749 31.248 152.962C9.95732 142.316 3.20503 110.758 13.369 90.4305C19.354 78.4604 30.7476 68.8193 43.7724 65.563C48.2878 64.4342 52.7494 64.2926 57.3858 64.2926C59.1474 64.2926 61.918 64.8328 63.3758 63.6571C65.3672 62.0513 65.4265 57.9057 66.0075 55.58C67.2371 50.6627 69.3004 45.8449 71.6348 41.422C81.7044 22.3421 101.772 10.7872 122.731 8.74961C144.435 6.63941 166.828 19.3536 178.637 37.0656C181.11 40.7757 183.061 44.9321 184.717 49.0455C185.5 50.9894 185.92 54.0202 187.622 55.3986C189.726 57.1042 192.9 55.6867 195.154 55.2167C198.752 54.4674 202.896 54.1318 206.59 54.4908C219.251 55.722 230.251 61.994 238.717 71.3715C244.457 77.7296 247.811 85.9352 249.427 94.2422C250.018 97.2856 249.191 101.876 250.606 104.588C251.686 106.658 254.243 106.944 256.143 107.947C258.658 109.274 261.299 111.201 263.222 113.301C274.351 125.457 272.004 147.416 256.143 154.686C250.385 157.325 244.364 156.864 238.173 156.864H209.312C204.914 156.864 199.422 155.979 195.154 157.046C190.117 158.305 191.56 165.056 196.243 165.577C200.303 166.028 204.679 165.577 208.768 165.577H234.906C243.684 165.577 253.031 166.448 261.043 162.219C278.569 152.969 283.798 129.278 273.931 112.757C271.895 109.348 269.108 106.097 265.944 103.681C263.876 102.101 259.811 100.933 258.593 98.5985C257.536 96.5712 258.077 92.7485 257.595 90.4304C256.597 85.6417 254.97 80.6423 252.784 76.2724C244.504 59.7102 227.608 48.1015 209.312 46.3227C204.369 45.8422 198.197 44.8985 193.521 46.8673ZM96.0481 226.565H76.9893C75.2032 226.565 71.5401 227.265 70.0012 226.293C68.3267 225.235 67.5306 220.732 66.4617 218.942C63.1836 213.453 56.5963 209.751 50.3068 209.14C29.8404 207.15 18.1544 233.47 33.4261 247.258C42.1348 255.12 56.6055 254.209 64.4649 245.624C66.2335 243.692 67.7876 241 68.6398 238.545C69.168 237.024 69.0728 235.585 70.9993 235.278C78.3757 234.102 86.9309 235.278 94.4145 235.278C97.0887 235.278 101.405 236.092 103.49 234.007C105.22 232.277 104.761 229.323 104.761 227.11V209.684V162.854C104.761 155.702 103.668 147.583 104.761 140.528C105.185 137.788 110.378 136.661 112.384 134.901C116.213 131.544 118.319 125.407 117.83 120.38C116.912 110.939 108.272 103.665 98.7708 104.588C89.3296 105.507 82.0556 114.146 82.9792 123.647C83.4747 128.741 86.3793 133.66 90.6027 136.535C92.2113 137.629 95.3005 137.954 95.9572 139.983C96.6961 142.267 96.0481 145.75 96.0481 148.152V166.121V226.565ZM209.857 235.278C210.033 237.512 210.939 239.312 211.944 241.268C218.311 253.658 234.709 255.968 245.252 247.621C260.163 235.815 251.575 210.919 233.272 209.14C226.124 208.445 218.243 211.557 213.85 217.308C212.529 219.037 211.292 221.257 210.583 223.298C210.213 224.363 210.302 225.611 209.221 226.293C207.682 227.265 204.019 226.565 202.233 226.565H183.174V176.468V149.785C183.174 147.175 182.127 141.711 183.447 139.439C184.341 137.898 187.181 137.474 188.62 136.535C192.014 134.319 194.436 130.805 195.517 126.915C197.196 120.872 195.679 113.407 190.798 109.126C182.217 101.601 168.078 103.884 163.117 114.39C160.012 120.966 161.205 129.961 166.838 134.901C168.845 136.661 174.037 137.788 174.462 140.528C175.555 147.583 174.462 155.702 174.462 162.854V209.684V227.11C174.462 229.323 174.003 232.277 175.732 234.007C177.896 236.171 182.573 235.278 185.352 235.278H209.857ZM98.7708 113.392C109.625 111.583 113.378 127.996 102.583 130.545C91.1402 133.246 87.2195 115.317 98.7708 113.392ZM177.184 113.392C188.038 111.583 191.792 127.996 180.996 130.545C169.554 133.246 165.633 115.317 177.184 113.392ZM136.889 143.977C128.03 145.822 121.273 153.461 122.186 162.854C122.572 166.821 124.617 171.464 127.631 174.108C129.48 175.729 134.426 176.908 135.164 179.19C135.666 180.741 135.255 183.011 135.255 184.636V196.616V222.209C135.255 226.038 135.857 230.415 135.255 234.189C134.948 236.115 133.509 236.02 131.988 236.548C129.947 237.257 127.727 238.495 125.998 239.815C120.449 244.054 117.153 251.737 117.83 258.693C118.968 270.402 130 281.058 142.334 278.66C152.703 276.643 160.336 269.561 161.393 258.693C162.064 251.786 158.737 244.026 153.225 239.815C151.496 238.495 149.276 237.257 147.235 236.548C145.713 236.02 144.275 236.115 143.968 234.189C143.366 230.415 143.968 226.038 143.968 222.209V196.616V184.636C143.968 183.011 143.557 180.741 144.059 179.19C144.797 176.908 149.742 175.729 151.591 174.108C155.42 170.751 157.526 164.614 157.037 159.587C156.11 150.053 146.63 141.947 136.889 143.977ZM137.978 152.599C148.831 150.79 152.585 167.203 141.789 169.752C130.347 172.453 126.426 154.524 137.978 152.599ZM45.9506 217.944C47.9404 217.639 50.0352 217.788 51.9405 218.397C64.8396 222.518 63.8948 242.617 49.7624 243.99C44.7817 244.475 39.6919 242.226 36.8749 238.001C31.7196 230.268 37.1349 219.29 45.9506 217.944ZM228.916 217.944C230.905 217.639 233 217.788 234.906 218.397C247.805 222.518 246.86 242.617 232.727 243.99C227.669 244.482 222.692 242.278 219.84 238.001C214.685 230.268 220.1 219.29 228.916 217.944ZM137.433 244.081C139.423 243.777 141.518 243.926 143.423 244.535C156.322 248.656 155.377 268.754 141.245 270.128C136.264 270.612 131.174 268.364 128.357 264.138C123.202 256.405 128.618 245.428 137.433 244.081Z" fill="#040404"/>
</svg>
