<svg width="238" height="238" viewBox="0 0 238 238" fill="none" xmlns="http://www.w3.org/2000/svg">
<path d="M0.261728 82.1927L0.819168 92.4294L10.4984 92.4294C16.2192 86.7137 23.6082 82.7565 31.6271 81.4832C35.5159 80.8658 39.4303 81.4095 43.2558 80.8278L43.597 81.169C39.528 94.5802 43.1309 109.706 50.6484 121.206C53.0625 124.899 56.1926 127.887 59.2933 130.988C60.4405 132.135 62.6058 133.646 62.64 135.428C62.6775 137.399 60.4019 139.732 59.3615 141.292C56.1837 146.059 52.882 150.744 49.6718 155.488C38.7556 171.623 30.7186 188.495 38.8238 208.1C50.4582 236.241 85.7317 246.978 110.668 228.769C120.494 221.593 124.762 211.814 129.244 200.938C141.82 213.514 153.983 224.139 172.92 224.139C178.303 224.139 183.719 223.331 188.832 221.627C196.669 219.014 203.344 214.745 210.796 221.07L221.033 220.068L221.033 210.834C214.809 203.5 218.868 197.115 221.439 189.402C223.199 184.122 224.122 178.516 224.102 172.959C224.034 154.023 213.484 141.865 200.901 129.281C212.589 124.465 222.815 119.599 230.093 108.655C246.371 84.1763 235.638 50.7804 209.02 39.2683C188.99 30.6053 172.077 38.623 155.45 49.7084C150.683 52.8862 145.998 56.1878 141.254 59.398C139.707 60.4446 137.352 62.7147 135.391 62.6775C133.609 62.6434 132.097 60.478 130.95 59.3308C127.963 56.3437 125.086 53.3508 121.58 50.9572C110.538 43.4193 94.1298 39.0101 81.1315 43.6345C80.8541 30.9824 83.1539 19.7861 92.3918 10.536L91.6265 0.730038L82.1552 0.299308C73.1366 9.31984 67.7321 21.0091 66.3923 33.6725C65.9374 37.9722 68.2656 45.0059 66.7548 48.8209C65.7832 51.2744 60.4044 53.9191 58.3275 55.6353C54.6995 58.6332 52.8672 63.4021 49.419 66.3921C47.8999 67.7093 45.0372 66.6988 43.2544 66.4979C38.9922 66.0178 34.835 66.1927 30.5947 66.8019C19.0972 68.4538 8.45538 74.0009 0.261728 82.1927ZM123.102 71.9561C113.334 77.7081 100.756 84.7679 92.743 92.7805C84.7522 100.771 77.6568 113.395 71.9185 123.139C66.0379 117.259 60.4966 111.802 58.0338 103.584C50.4978 78.4371 71.6472 54.1036 97.3505 56.7607C108.378 57.9007 115.651 64.5052 123.102 71.9561ZM98.5338 109.491C117.833 129.604 123.618 162.879 117.497 189.192C114.383 202.581 108.452 215.831 94.8275 221.117C71.5325 230.156 47.1333 210.737 50.2556 186.1C51.922 172.95 63.7326 160.214 71.1507 149.67C80.4487 136.453 88.666 122.285 98.5338 109.491ZM109.453 98.5714C122.043 88.82 135.921 80.2484 149.171 71.4101C160.587 63.7947 173.167 51.625 187.284 50.1509C212.271 47.5412 230.493 73.6199 220.533 96.3658C214.967 109.079 201.863 114.579 189.154 117.535C162.816 123.662 129.586 117.89 109.453 98.5714ZM125.832 125.187L145.281 131.67L131.632 145.319L125.149 125.869L125.832 125.187ZM184.522 133.376L133.339 184.56C132.664 180.119 133.907 175.386 134.008 170.897C134.061 168.501 133.535 165.508 134.568 163.268C136.561 158.947 142.606 154.056 145.964 150.698C150.82 145.841 157.006 137.477 163.231 134.606C165.47 133.573 168.463 134.099 170.86 134.045C175.349 133.945 180.081 132.701 184.522 133.376ZM194.759 143.613L204.654 154.873L154.836 204.692L143.575 194.796L194.759 143.613ZM209.431 170.569C210.91 179.163 206.36 186.039 204.078 193.879C203.441 196.071 203.813 200.62 202.198 202.235C200.583 203.85 196.033 203.478 193.842 204.116C186.018 206.393 179.098 210.92 170.532 209.469L209.431 170.569Z" fill="#FFFAFA"/>
</svg>
