<svg width="1275" height="354" viewBox="0 0 1275 354" fill="none" xmlns="http://www.w3.org/2000/svg">
<path d="M46.2617 128.192L46.8192 138.429L56.4984 138.429C62.2192 132.713 69.6082 128.756 77.6271 127.483C81.5159 126.866 85.4303 127.409 89.2558 126.828L89.597 127.169C85.528 140.58 89.1309 155.706 96.6484 167.206C99.0625 170.899 102.193 173.887 105.293 176.987C106.44 178.135 108.606 179.646 108.64 181.428C108.677 183.399 106.402 185.732 105.361 187.292C102.184 192.059 98.882 196.744 95.6718 201.488C84.7556 217.622 76.7186 234.495 84.8238 254.1C96.4582 282.241 131.732 292.977 156.668 274.768C166.494 267.593 170.762 257.813 175.244 246.938C187.82 259.514 199.983 270.138 218.92 270.138C224.303 270.138 229.719 269.33 234.832 267.626C242.669 265.014 249.344 260.745 256.796 267.07L267.033 266.068L267.033 256.833C260.809 249.5 264.868 243.115 267.439 235.402C269.199 230.122 270.122 224.516 270.102 218.959C270.034 200.023 259.484 187.865 246.901 175.281C258.589 170.465 268.815 165.598 276.093 154.655C292.371 130.176 281.638 96.7802 255.02 85.268C234.99 76.6051 218.077 84.6228 201.45 95.7081C196.683 98.8859 191.998 102.188 187.254 105.398C185.707 106.444 183.352 108.714 181.391 108.677C179.609 108.643 178.097 106.478 176.95 105.331C173.963 102.343 171.086 99.3505 167.58 96.957C156.538 89.419 140.13 85.0099 127.131 89.6343C126.854 76.9821 129.154 65.7859 138.392 56.5357L137.626 46.7298L128.155 46.2991C119.137 55.3196 113.732 67.0089 112.392 79.6723C111.937 83.9719 114.266 91.0056 112.755 94.8206C111.783 97.2742 106.404 99.9189 104.328 101.635C100.7 104.633 98.8672 109.402 95.419 112.392C93.8999 113.709 91.0372 112.699 89.2544 112.498C84.9922 112.018 80.835 112.192 76.5947 112.802C65.0972 114.454 54.4554 120.001 46.2617 128.192ZM169.102 117.956C159.334 123.708 146.756 130.768 138.743 138.78C130.752 146.771 123.657 159.395 117.918 169.139C112.038 163.259 106.497 157.801 104.034 149.584C96.4978 124.437 117.647 100.103 143.35 102.76C154.378 103.9 161.651 110.505 169.102 117.956ZM144.534 155.49C163.833 175.603 169.618 208.879 163.497 235.191C160.383 248.58 154.452 261.831 140.827 267.117C117.532 276.156 93.1333 256.737 96.2556 232.1C97.922 218.95 109.733 206.214 117.151 195.669C126.449 182.453 134.666 168.285 144.534 155.49ZM155.453 144.571C168.043 134.82 181.921 126.248 195.171 117.41C206.587 109.794 219.167 97.6247 233.284 96.1506C258.271 93.541 276.493 119.62 266.533 142.366C260.967 155.079 247.863 160.578 235.154 163.535C208.816 169.662 175.586 163.89 155.453 144.571ZM171.832 171.187L191.281 177.67L177.632 191.319L171.149 171.869L171.832 171.187ZM230.522 179.376L179.339 230.559C178.664 226.119 179.907 221.386 180.008 216.897C180.061 214.501 179.535 211.507 180.568 209.268C182.561 204.947 188.606 200.056 191.964 196.698C196.82 191.841 203.006 183.477 209.231 180.605C211.47 179.572 214.463 180.099 216.86 180.045C221.349 179.944 226.081 178.701 230.522 179.376ZM240.759 189.613L250.654 200.873L200.836 250.691L189.575 240.796L240.759 189.613ZM255.431 216.569C256.91 225.163 252.36 232.039 250.078 239.879C249.441 242.071 249.813 246.62 248.198 248.235C246.583 249.85 242.033 249.478 239.842 250.116C232.018 252.393 225.098 256.92 216.532 255.468L255.431 216.569Z" fill="#FFFAFA"/>
<path d="M313.23 270C311.404 270 309.851 269.361 308.572 268.082C307.294 266.803 306.654 265.251 306.654 263.424V85.0501C306.654 83.0408 307.294 81.3968 308.572 80.1181C309.851 78.8394 311.404 78.2001 313.23 78.2001H392.69C407.486 78.2001 419.542 80.4834 428.858 85.0501C438.174 89.4341 445.024 95.5534 449.408 103.408C453.975 111.263 456.258 120.396 456.258 130.808C456.258 137.749 454.98 143.869 452.422 149.166C450.048 154.281 447.034 158.482 443.38 161.77C439.91 165.058 436.439 167.615 432.968 169.442C440.092 172.73 446.394 178.21 451.874 185.882C457.354 193.554 460.094 202.687 460.094 213.282C460.094 224.242 457.628 234.015 452.696 242.6C447.764 251.185 440.458 257.944 430.776 262.876C421.095 267.625 409.13 270 394.882 270H313.23ZM344.74 240.956H390.498C400.362 240.956 407.852 238.307 412.966 233.01C418.081 227.53 420.638 220.954 420.638 213.282C420.638 205.245 417.99 198.577 412.692 193.28C407.578 187.983 400.18 185.334 390.498 185.334H344.74V240.956ZM344.74 156.838H387.758C397.44 156.838 404.655 154.555 409.404 149.988C414.336 145.239 416.802 139.119 416.802 131.63C416.802 123.958 414.336 118.021 409.404 113.82C404.655 109.436 397.44 107.244 387.758 107.244H344.74V156.838ZM538.882 272.74C518.606 272.74 502.531 266.895 490.658 255.204C478.785 243.513 472.391 226.891 471.478 205.336C471.295 203.509 471.204 201.226 471.204 198.486C471.204 195.563 471.295 193.28 471.478 191.636C472.209 177.936 475.314 166.063 480.794 156.016C486.457 145.969 494.22 138.297 504.084 133C513.948 127.52 525.547 124.78 538.882 124.78C553.678 124.78 566.099 127.885 576.146 134.096C586.193 140.124 593.773 148.618 598.888 159.578C604.003 170.355 606.56 182.868 606.56 197.116V202.87C606.56 204.697 605.921 206.249 604.642 207.528C603.363 208.807 601.719 209.446 599.71 209.446H508.742C508.742 209.446 508.742 209.72 508.742 210.268C508.742 210.816 508.742 211.273 508.742 211.638C508.925 218.031 510.112 223.968 512.304 229.448C514.679 234.745 518.058 239.038 522.442 242.326C527.009 245.614 532.397 247.258 538.608 247.258C543.723 247.258 548.015 246.527 551.486 245.066C554.957 243.422 557.788 241.595 559.98 239.586C562.172 237.577 563.725 235.933 564.638 234.654C566.282 232.462 567.561 231.183 568.474 230.818C569.57 230.27 571.123 229.996 573.132 229.996H596.696C598.523 229.996 599.984 230.544 601.08 231.64C602.359 232.736 602.907 234.106 602.724 235.75C602.541 238.673 600.989 242.235 598.066 246.436C595.326 250.637 591.307 254.747 586.01 258.766C580.713 262.785 574.045 266.164 566.008 268.904C558.153 271.461 549.111 272.74 538.882 272.74ZM508.742 186.43H569.296V185.608C569.296 178.484 568.109 172.273 565.734 166.976C563.359 161.679 559.889 157.477 555.322 154.372C550.755 151.267 545.275 149.714 538.882 149.714C532.489 149.714 527.009 151.267 522.442 154.372C517.875 157.477 514.405 161.679 512.03 166.976C509.838 172.273 508.742 178.484 508.742 185.608V186.43ZM683.321 272.74C663.045 272.74 646.97 266.895 635.097 255.204C623.223 243.513 616.83 226.891 615.917 205.336C615.734 203.509 615.643 201.226 615.643 198.486C615.643 195.563 615.734 193.28 615.917 191.636C616.647 177.936 619.753 166.063 625.233 156.016C630.895 145.969 638.659 138.297 648.523 133C658.387 127.52 669.986 124.78 683.321 124.78C698.117 124.78 710.538 127.885 720.585 134.096C730.631 140.124 738.212 148.618 743.327 159.578C748.441 170.355 750.999 182.868 750.999 197.116V202.87C750.999 204.697 750.359 206.249 749.081 207.528C747.802 208.807 746.158 209.446 744.149 209.446H653.181C653.181 209.446 653.181 209.72 653.181 210.268C653.181 210.816 653.181 211.273 653.181 211.638C653.363 218.031 654.551 223.968 656.743 229.448C659.117 234.745 662.497 239.038 666.881 242.326C671.447 245.614 676.836 247.258 683.047 247.258C688.161 247.258 692.454 246.527 695.925 245.066C699.395 243.422 702.227 241.595 704.419 239.586C706.611 237.577 708.163 235.933 709.077 234.654C710.721 232.462 711.999 231.183 712.913 230.818C714.009 230.27 715.561 229.996 717.571 229.996H741.135C742.961 229.996 744.423 230.544 745.519 231.64C746.797 232.736 747.345 234.106 747.163 235.75C746.98 238.673 745.427 242.235 742.505 246.436C739.765 250.637 735.746 254.747 730.449 258.766C725.151 262.785 718.484 266.164 710.447 268.904C702.592 271.461 693.55 272.74 683.321 272.74ZM653.181 186.43H713.735V185.608C713.735 178.484 712.547 172.273 710.173 166.976C707.798 161.679 704.327 157.477 699.761 154.372C695.194 151.267 689.714 149.714 683.321 149.714C676.927 149.714 671.447 151.267 666.881 154.372C662.314 157.477 658.843 161.679 656.469 166.976C654.277 172.273 653.181 178.484 653.181 185.608V186.43ZM810.583 270C807.66 270 805.377 269.269 803.733 267.808C802.089 266.347 800.902 264.52 800.171 262.328L741.535 86.4201C741.17 85.5068 740.987 84.6848 740.987 83.9541C740.987 82.3101 741.535 80.9401 742.631 79.8441C743.727 78.7481 745.097 78.2001 746.741 78.2001H770.853C773.41 78.2001 775.328 78.9308 776.607 80.3921C778.068 81.6708 778.982 82.9494 779.347 84.2281L825.653 225.338L871.685 84.2281C872.233 82.9494 873.146 81.6708 874.425 80.3921C875.886 78.9308 877.896 78.2001 880.453 78.2001H904.565C906.026 78.2001 907.305 78.7481 908.401 79.8441C909.68 80.9401 910.319 82.3101 910.319 83.9541C910.319 84.6848 910.136 85.5068 909.771 86.4201L851.135 262.328C850.404 264.52 849.217 266.347 847.573 267.808C845.929 269.269 843.646 270 840.723 270H810.583ZM927.031 270C925.204 270 923.652 269.361 922.373 268.082C921.094 266.803 920.455 265.251 920.455 263.424V134.096C920.455 132.269 921.094 130.717 922.373 129.438C923.652 128.159 925.204 127.52 927.031 127.52H949.773C951.782 127.52 953.335 128.159 954.431 129.438C955.71 130.717 956.349 132.269 956.349 134.096V263.424C956.349 265.251 955.71 266.803 954.431 268.082C953.335 269.361 951.782 270 949.773 270H927.031ZM925.935 103.956C923.926 103.956 922.282 103.408 921.003 102.312C919.907 101.033 919.359 99.3894 919.359 97.3801V77.6521C919.359 75.8255 919.907 74.2728 921.003 72.9941C922.282 71.7154 923.926 71.0761 925.935 71.0761H950.869C952.878 71.0761 954.522 71.7154 955.801 72.9941C957.08 74.2728 957.719 75.8255 957.719 77.6521V97.3801C957.719 99.3894 957.08 101.033 955.801 102.312C954.522 103.408 952.878 103.956 950.869 103.956H925.935ZM1057.91 272.74C1047.32 272.74 1038.46 270.913 1031.33 267.26C1024.39 263.607 1018.64 258.949 1014.07 253.286V263.424C1014.07 265.251 1013.43 266.803 1012.15 268.082C1011.06 269.361 1009.51 270 1007.5 270H985.851C984.024 270 982.472 269.361 981.193 268.082C979.914 266.803 979.275 265.251 979.275 263.424V82.0361C979.275 80.2094 979.914 78.6568 981.193 77.3781C982.472 76.0994 984.024 75.4601 985.851 75.4601H1009.14C1011.15 75.4601 1012.7 76.0994 1013.8 77.3781C1015.08 78.6568 1015.72 80.2094 1015.72 82.0361V142.864C1020.28 137.567 1025.95 133.274 1032.7 129.986C1039.65 126.515 1048.05 124.78 1057.91 124.78C1067.59 124.78 1076 126.424 1083.12 129.712C1090.24 133 1096.18 137.658 1100.93 143.686C1105.86 149.531 1109.61 156.381 1112.17 164.236C1114.72 172.091 1116.09 180.585 1116.28 189.718C1116.46 193.006 1116.55 196.02 1116.55 198.76C1116.55 201.317 1116.46 204.24 1116.28 207.528C1115.91 217.027 1114.45 225.795 1111.89 233.832C1109.33 241.687 1105.68 248.537 1100.93 254.382C1096.18 260.227 1090.24 264.794 1083.12 268.082C1076 271.187 1067.59 272.74 1057.91 272.74ZM1047.77 243.422C1055.63 243.422 1061.75 241.778 1066.13 238.49C1070.52 235.019 1073.62 230.544 1075.45 225.064C1077.46 219.584 1078.65 213.556 1079.01 206.98C1079.38 201.5 1079.38 196.02 1079.01 190.54C1078.65 183.964 1077.46 177.936 1075.45 172.456C1073.62 166.976 1070.52 162.592 1066.13 159.304C1061.75 155.833 1055.63 154.098 1047.77 154.098C1040.47 154.098 1034.53 155.742 1029.96 159.03C1025.4 162.318 1021.93 166.519 1019.55 171.634C1017.18 176.566 1015.9 181.772 1015.72 187.252C1015.53 190.54 1015.44 194.102 1015.44 197.938C1015.44 201.591 1015.53 205.062 1015.72 208.35C1016.08 214.013 1017.27 219.584 1019.28 225.064C1021.47 230.361 1024.85 234.745 1029.42 238.216C1034.17 241.687 1040.29 243.422 1047.77 243.422ZM1194.72 272.74C1174.44 272.74 1158.37 266.895 1146.49 255.204C1134.62 243.513 1128.23 226.891 1127.31 205.336C1127.13 203.509 1127.04 201.226 1127.04 198.486C1127.04 195.563 1127.13 193.28 1127.31 191.636C1128.04 177.936 1131.15 166.063 1136.63 156.016C1142.29 145.969 1150.05 138.297 1159.92 133C1169.78 127.52 1181.38 124.78 1194.72 124.78C1209.51 124.78 1221.93 127.885 1231.98 134.096C1242.03 140.124 1249.61 148.618 1254.72 159.578C1259.84 170.355 1262.39 182.868 1262.39 197.116V202.87C1262.39 204.697 1261.75 206.249 1260.48 207.528C1259.2 208.807 1257.55 209.446 1255.54 209.446H1164.58C1164.58 209.446 1164.58 209.72 1164.58 210.268C1164.58 210.816 1164.58 211.273 1164.58 211.638C1164.76 218.031 1165.95 223.968 1168.14 229.448C1170.51 234.745 1173.89 239.038 1178.28 242.326C1182.84 245.614 1188.23 247.258 1194.44 247.258C1199.56 247.258 1203.85 246.527 1207.32 245.066C1210.79 243.422 1213.62 241.595 1215.81 239.586C1218.01 237.577 1219.56 235.933 1220.47 234.654C1222.12 232.462 1223.39 231.183 1224.31 230.818C1225.4 230.27 1226.96 229.996 1228.97 229.996H1252.53C1254.36 229.996 1255.82 230.544 1256.91 231.64C1258.19 232.736 1258.74 234.106 1258.56 235.75C1258.38 238.673 1256.82 242.235 1253.9 246.436C1251.16 250.637 1247.14 254.747 1241.84 258.766C1236.55 262.785 1229.88 266.164 1221.84 268.904C1213.99 271.461 1204.95 272.74 1194.72 272.74ZM1164.58 186.43H1225.13V185.608C1225.13 178.484 1223.94 172.273 1221.57 166.976C1219.19 161.679 1215.72 157.477 1211.16 154.372C1206.59 151.267 1201.11 149.714 1194.72 149.714C1188.32 149.714 1182.84 151.267 1178.28 154.372C1173.71 157.477 1170.24 161.679 1167.86 166.976C1165.67 172.273 1164.58 178.484 1164.58 185.608V186.43Z" fill="#FFFAFA"/>
</svg>
