<svg width="1275" height="355" viewBox="0 0 1275 355" fill="none" xmlns="http://www.w3.org/2000/svg">
<path d="M46.2617 128.738L46.8192 138.974L56.4984 138.974C62.2192 133.259 69.6082 129.302 77.6271 128.028C81.5159 127.411 85.4303 127.955 89.2558 127.373L89.597 127.714C85.528 141.125 89.1309 156.251 96.6484 167.751C99.0625 171.445 102.193 174.432 105.293 177.533C106.44 178.68 108.606 180.191 108.64 181.973C108.677 183.944 106.402 186.277 105.361 187.838C102.184 192.604 98.882 197.289 95.6718 202.033C84.7556 218.168 76.7186 235.04 84.8238 254.645C96.4582 282.786 131.732 293.523 156.668 275.314C166.494 268.138 170.762 258.359 175.244 247.483C187.82 260.059 199.983 270.684 218.92 270.684C224.303 270.684 229.719 269.876 234.832 268.172C242.669 265.559 249.344 261.29 256.796 267.615L267.033 266.613L267.033 257.379C260.809 250.045 264.868 243.66 267.439 235.947C269.199 230.667 270.122 225.061 270.102 219.504C270.034 200.568 259.484 188.41 246.901 175.826C258.589 171.01 268.815 166.144 276.093 155.2C292.371 130.721 281.638 97.3255 255.02 85.8133C234.99 77.1503 218.077 85.1681 201.45 96.2534C196.683 99.4312 191.998 102.733 187.254 105.943C185.707 106.99 183.352 109.26 181.391 109.223C179.609 109.188 178.097 107.023 176.95 105.876C173.963 102.889 171.086 99.8958 167.58 97.5022C156.538 89.9643 140.13 85.5552 127.131 90.1796C126.854 77.5274 129.154 66.3312 138.392 57.081L137.626 47.2751L128.155 46.8444C119.137 55.8649 113.732 67.5542 112.392 80.2176C111.937 84.5172 114.266 91.5509 112.755 95.3659C111.783 97.8195 106.404 100.464 104.328 102.18C100.7 105.178 98.8672 109.947 95.419 112.937C93.8999 114.254 91.0372 113.244 89.2544 113.043C84.9922 112.563 80.835 112.738 76.5947 113.347C65.0972 114.999 54.4554 120.546 46.2617 128.738ZM169.102 118.501C159.334 124.253 146.756 131.313 138.743 139.326C130.752 147.316 123.657 159.94 117.918 169.684C112.038 163.804 106.497 158.347 104.034 150.129C96.4978 124.982 117.647 100.649 143.35 103.306C154.378 104.446 161.651 111.05 169.102 118.501ZM144.534 156.036C163.833 176.149 169.618 209.424 163.497 235.737C160.383 249.126 154.452 262.376 140.827 267.662C117.532 276.701 93.1333 257.282 96.2556 232.645C97.922 219.495 109.733 206.759 117.151 196.215C126.449 182.998 134.666 168.83 144.534 156.036ZM155.453 145.116C168.043 135.365 181.921 126.793 195.171 117.955C206.587 110.34 219.167 98.17 233.284 96.6959C258.271 94.0863 276.493 120.165 266.533 142.911C260.967 155.624 247.863 161.124 235.154 164.08C208.816 170.207 175.586 164.435 155.453 145.116ZM171.832 171.732L191.281 178.215L177.632 191.864L171.149 172.414L171.832 171.732ZM230.522 179.921L179.339 231.105C178.664 226.664 179.907 221.931 180.008 217.442C180.061 215.046 179.535 212.053 180.568 209.813C182.561 205.492 188.606 200.601 191.964 197.243C196.82 192.386 203.006 184.022 209.231 181.151C211.47 180.118 214.463 180.644 216.86 180.59C221.349 180.49 226.081 179.246 230.522 179.921ZM240.759 190.158L250.654 201.418L200.836 251.237L189.575 241.341L240.759 190.158ZM255.431 217.114C256.91 225.708 252.36 232.584 250.078 240.424C249.441 242.616 249.813 247.165 248.198 248.78C246.583 250.395 242.033 250.023 239.842 250.661C232.018 252.938 225.098 257.465 216.532 256.014L255.431 217.114Z" fill="black"/>
<path d="M313.23 271C311.404 271 309.851 270.361 308.572 269.082C307.294 267.803 306.654 266.251 306.654 264.424V86.05C306.654 84.0407 307.294 82.3967 308.572 81.118C309.851 79.8393 311.404 79.2 313.23 79.2H392.69C407.486 79.2 419.542 81.4833 428.858 86.05C438.174 90.434 445.024 96.5533 449.408 104.408C453.975 112.263 456.258 121.396 456.258 131.808C456.258 138.749 454.98 144.869 452.422 150.166C450.048 155.281 447.034 159.482 443.38 162.77C439.91 166.058 436.439 168.615 432.968 170.442C440.092 173.73 446.394 179.21 451.874 186.882C457.354 194.554 460.094 203.687 460.094 214.282C460.094 225.242 457.628 235.015 452.696 243.6C447.764 252.185 440.458 258.944 430.776 263.876C421.095 268.625 409.13 271 394.882 271H313.23ZM344.74 241.956H390.498C400.362 241.956 407.852 239.307 412.966 234.01C418.081 228.53 420.638 221.954 420.638 214.282C420.638 206.245 417.99 199.577 412.692 194.28C407.578 188.983 400.18 186.334 390.498 186.334H344.74V241.956ZM344.74 157.838H387.758C397.44 157.838 404.655 155.555 409.404 150.988C414.336 146.239 416.802 140.119 416.802 132.63C416.802 124.958 414.336 119.021 409.404 114.82C404.655 110.436 397.44 108.244 387.758 108.244H344.74V157.838ZM538.882 273.74C518.606 273.74 502.531 267.895 490.658 256.204C478.785 244.513 472.391 227.891 471.478 206.336C471.295 204.509 471.204 202.226 471.204 199.486C471.204 196.563 471.295 194.28 471.478 192.636C472.209 178.936 475.314 167.063 480.794 157.016C486.457 146.969 494.22 139.297 504.084 134C513.948 128.52 525.547 125.78 538.882 125.78C553.678 125.78 566.099 128.885 576.146 135.096C586.193 141.124 593.773 149.618 598.888 160.578C604.003 171.355 606.56 183.868 606.56 198.116V203.87C606.56 205.697 605.921 207.249 604.642 208.528C603.363 209.807 601.719 210.446 599.71 210.446H508.742C508.742 210.446 508.742 210.72 508.742 211.268C508.742 211.816 508.742 212.273 508.742 212.638C508.925 219.031 510.112 224.968 512.304 230.448C514.679 235.745 518.058 240.038 522.442 243.326C527.009 246.614 532.397 248.258 538.608 248.258C543.723 248.258 548.015 247.527 551.486 246.066C554.957 244.422 557.788 242.595 559.98 240.586C562.172 238.577 563.725 236.933 564.638 235.654C566.282 233.462 567.561 232.183 568.474 231.818C569.57 231.27 571.123 230.996 573.132 230.996H596.696C598.523 230.996 599.984 231.544 601.08 232.64C602.359 233.736 602.907 235.106 602.724 236.75C602.541 239.673 600.989 243.235 598.066 247.436C595.326 251.637 591.307 255.747 586.01 259.766C580.713 263.785 574.045 267.164 566.008 269.904C558.153 272.461 549.111 273.74 538.882 273.74ZM508.742 187.43H569.296V186.608C569.296 179.484 568.109 173.273 565.734 167.976C563.359 162.679 559.889 158.477 555.322 155.372C550.755 152.267 545.275 150.714 538.882 150.714C532.489 150.714 527.009 152.267 522.442 155.372C517.875 158.477 514.405 162.679 512.03 167.976C509.838 173.273 508.742 179.484 508.742 186.608V187.43ZM683.321 273.74C663.045 273.74 646.97 267.895 635.097 256.204C623.223 244.513 616.83 227.891 615.917 206.336C615.734 204.509 615.643 202.226 615.643 199.486C615.643 196.563 615.734 194.28 615.917 192.636C616.647 178.936 619.753 167.063 625.233 157.016C630.895 146.969 638.659 139.297 648.523 134C658.387 128.52 669.986 125.78 683.321 125.78C698.117 125.78 710.538 128.885 720.585 135.096C730.631 141.124 738.212 149.618 743.327 160.578C748.441 171.355 750.999 183.868 750.999 198.116V203.87C750.999 205.697 750.359 207.249 749.081 208.528C747.802 209.807 746.158 210.446 744.149 210.446H653.181C653.181 210.446 653.181 210.72 653.181 211.268C653.181 211.816 653.181 212.273 653.181 212.638C653.363 219.031 654.551 224.968 656.743 230.448C659.117 235.745 662.497 240.038 666.881 243.326C671.447 246.614 676.836 248.258 683.047 248.258C688.161 248.258 692.454 247.527 695.925 246.066C699.395 244.422 702.227 242.595 704.419 240.586C706.611 238.577 708.163 236.933 709.077 235.654C710.721 233.462 711.999 232.183 712.913 231.818C714.009 231.27 715.561 230.996 717.571 230.996H741.135C742.961 230.996 744.423 231.544 745.519 232.64C746.797 233.736 747.345 235.106 747.163 236.75C746.98 239.673 745.427 243.235 742.505 247.436C739.765 251.637 735.746 255.747 730.449 259.766C725.151 263.785 718.484 267.164 710.447 269.904C702.592 272.461 693.55 273.74 683.321 273.74ZM653.181 187.43H713.735V186.608C713.735 179.484 712.547 173.273 710.173 167.976C707.798 162.679 704.327 158.477 699.761 155.372C695.194 152.267 689.714 150.714 683.321 150.714C676.927 150.714 671.447 152.267 666.881 155.372C662.314 158.477 658.843 162.679 656.469 167.976C654.277 173.273 653.181 179.484 653.181 186.608V187.43ZM810.583 271C807.66 271 805.377 270.269 803.733 268.808C802.089 267.347 800.902 265.52 800.171 263.328L741.535 87.42C741.17 86.5067 740.987 85.6847 740.987 84.954C740.987 83.31 741.535 81.94 742.631 80.844C743.727 79.748 745.097 79.2 746.741 79.2H770.853C773.41 79.2 775.328 79.9307 776.607 81.392C778.068 82.6707 778.982 83.9493 779.347 85.228L825.653 226.338L871.685 85.228C872.233 83.9493 873.146 82.6707 874.425 81.392C875.886 79.9307 877.896 79.2 880.453 79.2H904.565C906.026 79.2 907.305 79.748 908.401 80.844C909.68 81.94 910.319 83.31 910.319 84.954C910.319 85.6847 910.136 86.5067 909.771 87.42L851.135 263.328C850.404 265.52 849.217 267.347 847.573 268.808C845.929 270.269 843.646 271 840.723 271H810.583ZM927.031 271C925.204 271 923.652 270.361 922.373 269.082C921.094 267.803 920.455 266.251 920.455 264.424V135.096C920.455 133.269 921.094 131.717 922.373 130.438C923.652 129.159 925.204 128.52 927.031 128.52H949.773C951.782 128.52 953.335 129.159 954.431 130.438C955.71 131.717 956.349 133.269 956.349 135.096V264.424C956.349 266.251 955.71 267.803 954.431 269.082C953.335 270.361 951.782 271 949.773 271H927.031ZM925.935 104.956C923.926 104.956 922.282 104.408 921.003 103.312C919.907 102.033 919.359 100.389 919.359 98.38V78.652C919.359 76.8253 919.907 75.2727 921.003 73.994C922.282 72.7153 923.926 72.076 925.935 72.076H950.869C952.878 72.076 954.522 72.7153 955.801 73.994C957.08 75.2727 957.719 76.8253 957.719 78.652V98.38C957.719 100.389 957.08 102.033 955.801 103.312C954.522 104.408 952.878 104.956 950.869 104.956H925.935ZM1057.91 273.74C1047.32 273.74 1038.46 271.913 1031.33 268.26C1024.39 264.607 1018.64 259.949 1014.07 254.286V264.424C1014.07 266.251 1013.43 267.803 1012.15 269.082C1011.06 270.361 1009.51 271 1007.5 271H985.851C984.024 271 982.472 270.361 981.193 269.082C979.914 267.803 979.275 266.251 979.275 264.424V83.036C979.275 81.2093 979.914 79.6567 981.193 78.378C982.472 77.0993 984.024 76.46 985.851 76.46H1009.14C1011.15 76.46 1012.7 77.0993 1013.8 78.378C1015.08 79.6567 1015.72 81.2093 1015.72 83.036V143.864C1020.28 138.567 1025.95 134.274 1032.7 130.986C1039.65 127.515 1048.05 125.78 1057.91 125.78C1067.59 125.78 1076 127.424 1083.12 130.712C1090.24 134 1096.18 138.658 1100.93 144.686C1105.86 150.531 1109.61 157.381 1112.17 165.236C1114.72 173.091 1116.09 181.585 1116.28 190.718C1116.46 194.006 1116.55 197.02 1116.55 199.76C1116.55 202.317 1116.46 205.24 1116.28 208.528C1115.91 218.027 1114.45 226.795 1111.89 234.832C1109.33 242.687 1105.68 249.537 1100.93 255.382C1096.18 261.227 1090.24 265.794 1083.12 269.082C1076 272.187 1067.59 273.74 1057.91 273.74ZM1047.77 244.422C1055.63 244.422 1061.75 242.778 1066.13 239.49C1070.52 236.019 1073.62 231.544 1075.45 226.064C1077.46 220.584 1078.65 214.556 1079.01 207.98C1079.38 202.5 1079.38 197.02 1079.01 191.54C1078.65 184.964 1077.46 178.936 1075.45 173.456C1073.62 167.976 1070.52 163.592 1066.13 160.304C1061.75 156.833 1055.63 155.098 1047.77 155.098C1040.47 155.098 1034.53 156.742 1029.96 160.03C1025.4 163.318 1021.93 167.519 1019.55 172.634C1017.18 177.566 1015.9 182.772 1015.72 188.252C1015.53 191.54 1015.44 195.102 1015.44 198.938C1015.44 202.591 1015.53 206.062 1015.72 209.35C1016.08 215.013 1017.27 220.584 1019.28 226.064C1021.47 231.361 1024.85 235.745 1029.42 239.216C1034.17 242.687 1040.29 244.422 1047.77 244.422ZM1194.72 273.74C1174.44 273.74 1158.37 267.895 1146.49 256.204C1134.62 244.513 1128.23 227.891 1127.31 206.336C1127.13 204.509 1127.04 202.226 1127.04 199.486C1127.04 196.563 1127.13 194.28 1127.31 192.636C1128.04 178.936 1131.15 167.063 1136.63 157.016C1142.29 146.969 1150.05 139.297 1159.92 134C1169.78 128.52 1181.38 125.78 1194.72 125.78C1209.51 125.78 1221.93 128.885 1231.98 135.096C1242.03 141.124 1249.61 149.618 1254.72 160.578C1259.84 171.355 1262.39 183.868 1262.39 198.116V203.87C1262.39 205.697 1261.75 207.249 1260.48 208.528C1259.2 209.807 1257.55 210.446 1255.54 210.446H1164.58C1164.58 210.446 1164.58 210.72 1164.58 211.268C1164.58 211.816 1164.58 212.273 1164.58 212.638C1164.76 219.031 1165.95 224.968 1168.14 230.448C1170.51 235.745 1173.89 240.038 1178.28 243.326C1182.84 246.614 1188.23 248.258 1194.44 248.258C1199.56 248.258 1203.85 247.527 1207.32 246.066C1210.79 244.422 1213.62 242.595 1215.81 240.586C1218.01 238.577 1219.56 236.933 1220.47 235.654C1222.12 233.462 1223.39 232.183 1224.31 231.818C1225.4 231.27 1226.96 230.996 1228.97 230.996H1252.53C1254.36 230.996 1255.82 231.544 1256.91 232.64C1258.19 233.736 1258.74 235.106 1258.56 236.75C1258.38 239.673 1256.82 243.235 1253.9 247.436C1251.16 251.637 1247.14 255.747 1241.84 259.766C1236.55 263.785 1229.88 267.164 1221.84 269.904C1213.99 272.461 1204.95 273.74 1194.72 273.74ZM1164.58 187.43H1225.13V186.608C1225.13 179.484 1223.94 173.273 1221.57 167.976C1219.19 162.679 1215.72 158.477 1211.16 155.372C1206.59 152.267 1201.11 150.714 1194.72 150.714C1188.32 150.714 1182.84 152.267 1178.28 155.372C1173.71 158.477 1170.24 162.679 1167.86 167.976C1165.67 173.273 1164.58 179.484 1164.58 186.608V187.43Z" fill="black"/>
</svg>
