<svg width="1275" height="354" viewBox="0 0 1275 354" fill="none" xmlns="http://www.w3.org/2000/svg">
<path d="M46.2617 128.192L46.8192 138.429L56.4984 138.429C62.2192 132.713 69.6082 128.756 77.6271 127.483C81.5159 126.865 85.4303 127.409 89.2558 126.827L89.597 127.169C85.528 140.58 89.1309 155.706 96.6484 167.206C99.0625 170.899 102.193 173.887 105.293 176.987C106.44 178.134 108.606 179.646 108.64 181.428C108.677 183.399 106.402 185.732 105.361 187.292C102.184 192.059 98.882 196.744 95.6718 201.488C84.7556 217.622 76.7186 234.495 84.8238 254.1C96.4582 282.241 131.732 292.977 156.668 274.768C166.494 267.593 170.762 257.813 175.244 246.938C187.82 259.514 199.983 270.138 218.92 270.138C224.303 270.138 229.719 269.33 234.832 267.626C242.669 265.014 249.344 260.745 256.796 267.07L267.033 266.068L267.033 256.833C260.809 249.5 264.868 243.114 267.439 235.401C269.199 230.122 270.122 224.515 270.102 218.959C270.034 200.022 259.484 187.865 246.901 175.281C258.589 170.465 268.815 165.598 276.093 154.655C292.371 130.176 281.638 96.7801 255.02 85.2679C234.99 76.6049 218.077 84.6227 201.45 95.708C196.683 98.8858 191.998 102.187 187.254 105.398C185.707 106.444 183.352 108.714 181.391 108.677C179.609 108.643 178.097 106.478 176.95 105.33C173.963 102.343 171.086 99.3504 167.58 96.9568C156.538 89.4189 140.13 85.0097 127.131 89.6342C126.854 76.982 129.154 65.7858 138.392 56.5356L137.626 46.7297L128.155 46.2989C119.137 55.3195 113.732 67.0088 112.392 79.6722C111.937 83.9718 114.266 91.0055 112.755 94.8205C111.783 97.2741 106.404 99.9188 104.328 101.635C100.7 104.633 98.8672 109.402 95.419 112.392C93.8999 113.709 91.0372 112.698 89.2544 112.498C84.9922 112.017 80.835 112.192 76.5947 112.802C65.0972 114.453 54.4554 120.001 46.2617 128.192ZM169.102 117.956C159.334 123.708 146.756 130.768 138.743 138.78C130.752 146.771 123.657 159.395 117.918 169.139C112.038 163.258 106.497 157.801 104.034 149.584C96.4978 124.437 117.647 100.103 143.35 102.76C154.378 103.9 161.651 110.505 169.102 117.956ZM144.534 155.49C163.833 175.603 169.618 208.879 163.497 235.191C160.383 248.58 154.452 261.831 140.827 267.117C117.532 276.156 93.1333 256.737 96.2556 232.099C97.922 218.95 109.733 206.214 117.151 195.669C126.449 182.453 134.666 168.285 144.534 155.49ZM155.453 144.571C168.043 134.82 181.921 126.248 195.171 117.41C206.587 109.794 219.167 97.6246 233.284 96.1505C258.271 93.5408 276.493 119.62 266.533 142.365C260.967 155.079 247.863 160.578 235.154 163.534C208.816 169.661 175.586 163.89 155.453 144.571ZM171.832 171.186L191.281 177.67L177.632 191.319L171.149 171.869L171.832 171.186ZM230.522 179.376L179.339 230.559C178.664 226.118 179.907 221.386 180.008 216.897C180.061 214.501 179.535 211.507 180.568 209.268C182.561 204.947 188.606 200.056 191.964 196.698C196.82 191.841 203.006 183.477 209.231 180.605C211.47 179.572 214.463 180.098 216.86 180.045C221.349 179.944 226.081 178.701 230.522 179.376ZM240.759 189.612L250.654 200.873L200.836 250.691L189.575 240.796L240.759 189.612ZM255.431 216.569C256.91 225.163 252.36 232.039 250.078 239.879C249.441 242.071 249.813 246.62 248.198 248.235C246.583 249.85 242.033 249.478 239.842 250.116C232.018 252.393 225.098 256.92 216.532 255.468L255.431 216.569Z" fill="#D1F661"/>
<path d="M313.23 270.455C311.404 270.455 309.851 269.815 308.572 268.537C307.294 267.258 306.654 265.705 306.654 263.879V85.5046C306.654 83.4952 307.294 81.8512 308.572 80.5726C309.851 79.2939 311.404 78.6546 313.23 78.6546H392.69C407.486 78.6546 419.542 80.9379 428.858 85.5046C438.174 89.8886 445.024 96.0079 449.408 103.863C453.975 111.717 456.258 120.851 456.258 131.263C456.258 138.204 454.98 144.323 452.422 149.621C450.048 154.735 447.034 158.937 443.38 162.225C439.91 165.513 436.439 168.07 432.968 169.897C440.092 173.185 446.394 178.665 451.874 186.337C457.354 194.009 460.094 203.142 460.094 213.737C460.094 224.697 457.628 234.469 452.696 243.055C447.764 251.64 440.458 258.399 430.776 263.331C421.095 268.08 409.13 270.455 394.882 270.455H313.23ZM344.74 241.411H390.498C400.362 241.411 407.852 238.762 412.966 233.465C418.081 227.985 420.638 221.409 420.638 213.737C420.638 205.699 417.99 199.032 412.692 193.735C407.578 188.437 400.18 185.789 390.498 185.789H344.74V241.411ZM344.74 157.293H387.758C397.44 157.293 404.655 155.009 409.404 150.443C414.336 145.693 416.802 139.574 416.802 132.085C416.802 124.413 414.336 118.476 409.404 114.275C404.655 109.891 397.44 107.699 387.758 107.699H344.74V157.293ZM538.882 273.195C518.606 273.195 502.531 267.349 490.658 255.659C478.785 243.968 472.391 227.345 471.478 205.791C471.295 203.964 471.204 201.681 471.204 198.941C471.204 196.018 471.295 193.735 471.478 192.091C472.209 178.391 475.314 166.517 480.794 156.471C486.457 146.424 494.22 138.752 504.084 133.455C513.948 127.975 525.547 125.235 538.882 125.235C553.678 125.235 566.099 128.34 576.146 134.551C586.193 140.579 593.773 149.073 598.888 160.033C604.003 170.81 606.56 183.323 606.56 197.571V203.325C606.56 205.151 605.921 206.704 604.642 207.983C603.363 209.261 601.719 209.901 599.71 209.901H508.742C508.742 209.901 508.742 210.175 508.742 210.723C508.742 211.271 508.742 211.727 508.742 212.093C508.925 218.486 510.112 224.423 512.304 229.903C514.679 235.2 518.058 239.493 522.442 242.781C527.009 246.069 532.397 247.713 538.608 247.713C543.723 247.713 548.015 246.982 551.486 245.521C554.957 243.877 557.788 242.05 559.98 240.041C562.172 238.031 563.725 236.387 564.638 235.109C566.282 232.917 567.561 231.638 568.474 231.273C569.57 230.725 571.123 230.451 573.132 230.451H596.696C598.523 230.451 599.984 230.999 601.08 232.095C602.359 233.191 602.907 234.561 602.724 236.205C602.541 239.127 600.989 242.689 598.066 246.891C595.326 251.092 591.307 255.202 586.01 259.221C580.713 263.239 574.045 266.619 566.008 269.359C558.153 271.916 549.111 273.195 538.882 273.195ZM508.742 186.885H569.296V186.063C569.296 178.939 568.109 172.728 565.734 167.431C563.359 162.133 559.889 157.932 555.322 154.827C550.755 151.721 545.275 150.169 538.882 150.169C532.489 150.169 527.009 151.721 522.442 154.827C517.875 157.932 514.405 162.133 512.03 167.431C509.838 172.728 508.742 178.939 508.742 186.063V186.885ZM683.321 273.195C663.045 273.195 646.97 267.349 635.097 255.659C623.223 243.968 616.83 227.345 615.917 205.791C615.734 203.964 615.643 201.681 615.643 198.941C615.643 196.018 615.734 193.735 615.917 192.091C616.647 178.391 619.753 166.517 625.233 156.471C630.895 146.424 638.659 138.752 648.523 133.455C658.387 127.975 669.986 125.235 683.321 125.235C698.117 125.235 710.538 128.34 720.585 134.551C730.631 140.579 738.212 149.073 743.327 160.033C748.441 170.81 750.999 183.323 750.999 197.571V203.325C750.999 205.151 750.359 206.704 749.081 207.983C747.802 209.261 746.158 209.901 744.149 209.901H653.181C653.181 209.901 653.181 210.175 653.181 210.723C653.181 211.271 653.181 211.727 653.181 212.093C653.363 218.486 654.551 224.423 656.743 229.903C659.117 235.2 662.497 239.493 666.881 242.781C671.447 246.069 676.836 247.713 683.047 247.713C688.161 247.713 692.454 246.982 695.925 245.521C699.395 243.877 702.227 242.05 704.419 240.041C706.611 238.031 708.163 236.387 709.077 235.109C710.721 232.917 711.999 231.638 712.913 231.273C714.009 230.725 715.561 230.451 717.571 230.451H741.135C742.961 230.451 744.423 230.999 745.519 232.095C746.797 233.191 747.345 234.561 747.163 236.205C746.98 239.127 745.427 242.689 742.505 246.891C739.765 251.092 735.746 255.202 730.449 259.221C725.151 263.239 718.484 266.619 710.447 269.359C702.592 271.916 693.55 273.195 683.321 273.195ZM653.181 186.885H713.735V186.063C713.735 178.939 712.547 172.728 710.173 167.431C707.798 162.133 704.327 157.932 699.761 154.827C695.194 151.721 689.714 150.169 683.321 150.169C676.927 150.169 671.447 151.721 666.881 154.827C662.314 157.932 658.843 162.133 656.469 167.431C654.277 172.728 653.181 178.939 653.181 186.063V186.885ZM810.583 270.455C807.66 270.455 805.377 269.724 803.733 268.263C802.089 266.801 800.902 264.975 800.171 262.783L741.535 86.8746C741.17 85.9613 740.987 85.1393 740.987 84.4086C740.987 82.7646 741.535 81.3946 742.631 80.2986C743.727 79.2026 745.097 78.6546 746.741 78.6546H770.853C773.41 78.6546 775.328 79.3852 776.607 80.8466C778.068 82.1252 778.982 83.4039 779.347 84.6826L825.653 225.793L871.685 84.6826C872.233 83.4039 873.146 82.1252 874.425 80.8466C875.886 79.3852 877.896 78.6546 880.453 78.6546H904.565C906.026 78.6546 907.305 79.2026 908.401 80.2986C909.68 81.3946 910.319 82.7646 910.319 84.4086C910.319 85.1393 910.136 85.9613 909.771 86.8746L851.135 262.783C850.404 264.975 849.217 266.801 847.573 268.263C845.929 269.724 843.646 270.455 840.723 270.455H810.583ZM927.031 270.455C925.204 270.455 923.652 269.815 922.373 268.537C921.094 267.258 920.455 265.705 920.455 263.879V134.551C920.455 132.724 921.094 131.171 922.373 129.893C923.652 128.614 925.204 127.975 927.031 127.975H949.773C951.782 127.975 953.335 128.614 954.431 129.893C955.71 131.171 956.349 132.724 956.349 134.551V263.879C956.349 265.705 955.71 267.258 954.431 268.537C953.335 269.815 951.782 270.455 949.773 270.455H927.031ZM925.935 104.411C923.926 104.411 922.282 103.863 921.003 102.767C919.907 101.488 919.359 99.8439 919.359 97.8346V78.1066C919.359 76.2799 919.907 74.7273 921.003 73.4486C922.282 72.1699 923.926 71.5306 925.935 71.5306H950.869C952.878 71.5306 954.522 72.1699 955.801 73.4486C957.08 74.7273 957.719 76.2799 957.719 78.1066V97.8346C957.719 99.8439 957.08 101.488 955.801 102.767C954.522 103.863 952.878 104.411 950.869 104.411H925.935ZM1057.91 273.195C1047.32 273.195 1038.46 271.368 1031.33 267.715C1024.39 264.061 1018.64 259.403 1014.07 253.741V263.879C1014.07 265.705 1013.43 267.258 1012.15 268.537C1011.06 269.815 1009.51 270.455 1007.5 270.455H985.851C984.024 270.455 982.472 269.815 981.193 268.537C979.914 267.258 979.275 265.705 979.275 263.879V82.4906C979.275 80.6639 979.914 79.1112 981.193 77.8326C982.472 76.5539 984.024 75.9146 985.851 75.9146H1009.14C1011.15 75.9146 1012.7 76.5539 1013.8 77.8326C1015.08 79.1112 1015.72 80.6639 1015.72 82.4906V143.319C1020.28 138.021 1025.95 133.729 1032.7 130.441C1039.65 126.97 1048.05 125.235 1057.91 125.235C1067.59 125.235 1076 126.879 1083.12 130.167C1090.24 133.455 1096.18 138.113 1100.93 144.141C1105.86 149.986 1109.61 156.836 1112.17 164.691C1114.72 172.545 1116.09 181.039 1116.28 190.173C1116.46 193.461 1116.55 196.475 1116.55 199.215C1116.55 201.772 1116.46 204.695 1116.28 207.983C1115.91 217.481 1114.45 226.249 1111.89 234.287C1109.33 242.141 1105.68 248.991 1100.93 254.837C1096.18 260.682 1090.24 265.249 1083.12 268.537C1076 271.642 1067.59 273.195 1057.91 273.195ZM1047.77 243.877C1055.63 243.877 1061.75 242.233 1066.13 238.945C1070.52 235.474 1073.62 230.999 1075.45 225.519C1077.46 220.039 1078.65 214.011 1079.01 207.435C1079.38 201.955 1079.38 196.475 1079.01 190.995C1078.65 184.419 1077.46 178.391 1075.45 172.911C1073.62 167.431 1070.52 163.047 1066.13 159.759C1061.75 156.288 1055.63 154.553 1047.77 154.553C1040.47 154.553 1034.53 156.197 1029.96 159.485C1025.4 162.773 1021.93 166.974 1019.55 172.089C1017.18 177.021 1015.9 182.227 1015.72 187.707C1015.53 190.995 1015.44 194.557 1015.44 198.393C1015.44 202.046 1015.53 205.517 1015.72 208.805C1016.08 214.467 1017.27 220.039 1019.28 225.519C1021.47 230.816 1024.85 235.2 1029.42 238.671C1034.17 242.141 1040.29 243.877 1047.77 243.877ZM1194.72 273.195C1174.44 273.195 1158.37 267.349 1146.49 255.659C1134.62 243.968 1128.23 227.345 1127.31 205.791C1127.13 203.964 1127.04 201.681 1127.04 198.941C1127.04 196.018 1127.13 193.735 1127.31 192.091C1128.04 178.391 1131.15 166.517 1136.63 156.471C1142.29 146.424 1150.05 138.752 1159.92 133.455C1169.78 127.975 1181.38 125.235 1194.72 125.235C1209.51 125.235 1221.93 128.34 1231.98 134.551C1242.03 140.579 1249.61 149.073 1254.72 160.033C1259.84 170.81 1262.39 183.323 1262.39 197.571V203.325C1262.39 205.151 1261.75 206.704 1260.48 207.983C1259.2 209.261 1257.55 209.901 1255.54 209.901H1164.58C1164.58 209.901 1164.58 210.175 1164.58 210.723C1164.58 211.271 1164.58 211.727 1164.58 212.093C1164.76 218.486 1165.95 224.423 1168.14 229.903C1170.51 235.2 1173.89 239.493 1178.28 242.781C1182.84 246.069 1188.23 247.713 1194.44 247.713C1199.56 247.713 1203.85 246.982 1207.32 245.521C1210.79 243.877 1213.62 242.05 1215.81 240.041C1218.01 238.031 1219.56 236.387 1220.47 235.109C1222.12 232.917 1223.39 231.638 1224.31 231.273C1225.4 230.725 1226.96 230.451 1228.97 230.451H1252.53C1254.36 230.451 1255.82 230.999 1256.91 232.095C1258.19 233.191 1258.74 234.561 1258.56 236.205C1258.38 239.127 1256.82 242.689 1253.9 246.891C1251.16 251.092 1247.14 255.202 1241.84 259.221C1236.55 263.239 1229.88 266.619 1221.84 269.359C1213.99 271.916 1204.95 273.195 1194.72 273.195ZM1164.58 186.885H1225.13V186.063C1225.13 178.939 1223.94 172.728 1221.57 167.431C1219.19 162.133 1215.72 157.932 1211.16 154.827C1206.59 151.721 1201.11 150.169 1194.72 150.169C1188.32 150.169 1182.84 151.721 1178.28 154.827C1173.71 157.932 1170.24 162.133 1167.86 167.431C1165.67 172.728 1164.58 178.939 1164.58 186.063V186.885Z" fill="#D1F661"/>
</svg>
