<svg width="1275" height="354" viewBox="0 0 1275 354" fill="none" xmlns="http://www.w3.org/2000/svg">
<path d="M46.2617 128.192L46.8192 138.429L56.4984 138.429C62.2192 132.713 69.6082 128.756 77.6271 127.483C81.5159 126.865 85.4303 127.409 89.2558 126.827L89.597 127.169C85.528 140.58 89.1309 155.706 96.6484 167.206C99.0625 170.899 102.193 173.887 105.293 176.987C106.44 178.134 108.606 179.646 108.64 181.428C108.677 183.399 106.402 185.732 105.361 187.292C102.184 192.059 98.882 196.744 95.6718 201.488C84.7556 217.622 76.7186 234.495 84.8238 254.1C96.4582 282.241 131.732 292.977 156.668 274.768C166.494 267.593 170.762 257.813 175.244 246.938C187.82 259.514 199.983 270.138 218.92 270.138C224.303 270.138 229.719 269.33 234.832 267.626C242.669 265.014 249.344 260.745 256.796 267.07L267.033 266.068L267.033 256.833C260.809 249.5 264.868 243.114 267.439 235.401C269.199 230.122 270.122 224.515 270.102 218.959C270.034 200.022 259.484 187.865 246.901 175.281C258.589 170.465 268.815 165.598 276.093 154.655C292.371 130.176 281.638 96.7801 255.02 85.2679C234.99 76.6049 218.077 84.6227 201.45 95.708C196.683 98.8858 191.998 102.187 187.254 105.398C185.707 106.444 183.352 108.714 181.391 108.677C179.609 108.643 178.097 106.478 176.95 105.33C173.963 102.343 171.086 99.3504 167.58 96.9568C156.538 89.4189 140.13 85.0097 127.131 89.6342C126.854 76.982 129.154 65.7858 138.392 56.5356L137.626 46.7297L128.155 46.2989C119.137 55.3195 113.732 67.0088 112.392 79.6722C111.937 83.9718 114.266 91.0055 112.755 94.8205C111.783 97.2741 106.404 99.9188 104.328 101.635C100.7 104.633 98.8672 109.402 95.419 112.392C93.8999 113.709 91.0372 112.698 89.2544 112.498C84.9922 112.017 80.835 112.192 76.5947 112.802C65.0972 114.453 54.4554 120.001 46.2617 128.192ZM169.102 117.956C159.334 123.708 146.756 130.768 138.743 138.78C130.752 146.771 123.657 159.395 117.918 169.139C112.038 163.258 106.497 157.801 104.034 149.584C96.4978 124.437 117.647 100.103 143.35 102.76C154.378 103.9 161.651 110.505 169.102 117.956ZM144.534 155.49C163.833 175.603 169.618 208.879 163.497 235.191C160.383 248.58 154.452 261.831 140.827 267.117C117.532 276.156 93.1333 256.737 96.2556 232.099C97.922 218.95 109.733 206.214 117.151 195.669C126.449 182.453 134.666 168.285 144.534 155.49ZM155.453 144.571C168.043 134.82 181.921 126.248 195.171 117.41C206.587 109.794 219.167 97.6246 233.284 96.1505C258.271 93.5408 276.493 119.62 266.533 142.365C260.967 155.079 247.863 160.578 235.154 163.534C208.816 169.661 175.586 163.89 155.453 144.571ZM171.832 171.186L191.281 177.67L177.632 191.319L171.149 171.869L171.832 171.186ZM230.522 179.376L179.339 230.559C178.664 226.118 179.907 221.386 180.008 216.897C180.061 214.501 179.535 211.507 180.568 209.268C182.561 204.947 188.606 200.056 191.964 196.698C196.82 191.841 203.006 183.477 209.231 180.605C211.47 179.572 214.463 180.098 216.86 180.045C221.349 179.944 226.081 178.701 230.522 179.376ZM240.759 189.612L250.654 200.873L200.836 250.691L189.575 240.796L240.759 189.612ZM255.431 216.569C256.91 225.163 252.36 232.039 250.078 239.879C249.441 242.071 249.813 246.62 248.198 248.235C246.583 249.85 242.033 249.478 239.842 250.116C232.018 252.393 225.098 256.92 216.532 255.468L255.431 216.569Z" fill="#4B66E3"/>
<path d="M313.23 270.454C311.404 270.454 309.851 269.815 308.572 268.536C307.294 267.258 306.654 265.705 306.654 263.878V85.5043C306.654 83.495 307.294 81.851 308.572 80.5723C309.851 79.2937 311.404 78.6543 313.23 78.6543H392.69C407.486 78.6543 419.542 80.9377 428.858 85.5043C438.174 89.8883 445.024 96.0077 449.408 103.862C453.975 111.717 456.258 120.85 456.258 131.262C456.258 138.204 454.98 144.323 452.422 149.62C450.048 154.735 447.034 158.936 443.38 162.224C439.91 165.512 436.439 168.07 432.968 169.896C440.092 173.184 446.394 178.664 451.874 186.336C457.354 194.008 460.094 203.142 460.094 213.736C460.094 224.696 457.628 234.469 452.696 243.054C447.764 251.64 440.458 258.398 430.776 263.33C421.095 268.08 409.13 270.454 394.882 270.454H313.23ZM344.74 241.41H390.498C400.362 241.41 407.852 238.762 412.966 233.464C418.081 227.984 420.638 221.408 420.638 213.736C420.638 205.699 417.99 199.032 412.692 193.734C407.578 188.437 400.18 185.788 390.498 185.788H344.74V241.41ZM344.74 157.292H387.758C397.44 157.292 404.655 155.009 409.404 150.442C414.336 145.693 416.802 139.574 416.802 132.084C416.802 124.412 414.336 118.476 409.404 114.274C404.655 109.89 397.44 107.698 387.758 107.698H344.74V157.292ZM538.882 273.194C518.606 273.194 502.531 267.349 490.658 255.658C478.785 243.968 472.391 227.345 471.478 205.79C471.295 203.964 471.204 201.68 471.204 198.94C471.204 196.018 471.295 193.734 471.478 192.09C472.209 178.39 475.314 166.517 480.794 156.47C486.457 146.424 494.22 138.752 504.084 133.454C513.948 127.974 525.547 125.234 538.882 125.234C553.678 125.234 566.099 128.34 576.146 134.55C586.193 140.578 593.773 149.072 598.888 160.032C604.003 170.81 606.56 183.322 606.56 197.57V203.324C606.56 205.151 605.921 206.704 604.642 207.982C603.363 209.261 601.719 209.9 599.71 209.9H508.742C508.742 209.9 508.742 210.174 508.742 210.722C508.742 211.27 508.742 211.727 508.742 212.092C508.925 218.486 510.112 224.422 512.304 229.902C514.679 235.2 518.058 239.492 522.442 242.78C527.009 246.068 532.397 247.712 538.608 247.712C543.723 247.712 548.015 246.982 551.486 245.52C554.957 243.876 557.788 242.05 559.98 240.04C562.172 238.031 563.725 236.387 564.638 235.108C566.282 232.916 567.561 231.638 568.474 231.272C569.57 230.724 571.123 230.45 573.132 230.45H596.696C598.523 230.45 599.984 230.998 601.08 232.094C602.359 233.19 602.907 234.56 602.724 236.204C602.541 239.127 600.989 242.689 598.066 246.89C595.326 251.092 591.307 255.202 586.01 259.22C580.713 263.239 574.045 266.618 566.008 269.358C558.153 271.916 549.111 273.194 538.882 273.194ZM508.742 186.884H569.296V186.062C569.296 178.938 568.109 172.728 565.734 167.43C563.359 162.133 559.889 157.932 555.322 154.826C550.755 151.721 545.275 150.168 538.882 150.168C532.489 150.168 527.009 151.721 522.442 154.826C517.875 157.932 514.405 162.133 512.03 167.43C509.838 172.728 508.742 178.938 508.742 186.062V186.884ZM683.321 273.194C663.045 273.194 646.97 267.349 635.097 255.658C623.223 243.968 616.83 227.345 615.917 205.79C615.734 203.964 615.643 201.68 615.643 198.94C615.643 196.018 615.734 193.734 615.917 192.09C616.647 178.39 619.753 166.517 625.233 156.47C630.895 146.424 638.659 138.752 648.523 133.454C658.387 127.974 669.986 125.234 683.321 125.234C698.117 125.234 710.538 128.34 720.585 134.55C730.631 140.578 738.212 149.072 743.327 160.032C748.441 170.81 750.999 183.322 750.999 197.57V203.324C750.999 205.151 750.359 206.704 749.081 207.982C747.802 209.261 746.158 209.9 744.149 209.9H653.181C653.181 209.9 653.181 210.174 653.181 210.722C653.181 211.27 653.181 211.727 653.181 212.092C653.363 218.486 654.551 224.422 656.743 229.902C659.117 235.2 662.497 239.492 666.881 242.78C671.447 246.068 676.836 247.712 683.047 247.712C688.161 247.712 692.454 246.982 695.925 245.52C699.395 243.876 702.227 242.05 704.419 240.04C706.611 238.031 708.163 236.387 709.077 235.108C710.721 232.916 711.999 231.638 712.913 231.272C714.009 230.724 715.561 230.45 717.571 230.45H741.135C742.961 230.45 744.423 230.998 745.519 232.094C746.797 233.19 747.345 234.56 747.163 236.204C746.98 239.127 745.427 242.689 742.505 246.89C739.765 251.092 735.746 255.202 730.449 259.22C725.151 263.239 718.484 266.618 710.447 269.358C702.592 271.916 693.55 273.194 683.321 273.194ZM653.181 186.884H713.735V186.062C713.735 178.938 712.547 172.728 710.173 167.43C707.798 162.133 704.327 157.932 699.761 154.826C695.194 151.721 689.714 150.168 683.321 150.168C676.927 150.168 671.447 151.721 666.881 154.826C662.314 157.932 658.843 162.133 656.469 167.43C654.277 172.728 653.181 178.938 653.181 186.062V186.884ZM810.583 270.454C807.66 270.454 805.377 269.724 803.733 268.262C802.089 266.801 800.902 264.974 800.171 262.782L741.535 86.8743C741.17 85.961 740.987 85.139 740.987 84.4083C740.987 82.7643 741.535 81.3943 742.631 80.2983C743.727 79.2023 745.097 78.6543 746.741 78.6543H770.853C773.41 78.6543 775.328 79.385 776.607 80.8463C778.068 82.125 778.982 83.4037 779.347 84.6823L825.653 225.792L871.685 84.6823C872.233 83.4037 873.146 82.125 874.425 80.8463C875.886 79.385 877.896 78.6543 880.453 78.6543H904.565C906.026 78.6543 907.305 79.2023 908.401 80.2983C909.68 81.3943 910.319 82.7643 910.319 84.4083C910.319 85.139 910.136 85.961 909.771 86.8743L851.135 262.782C850.404 264.974 849.217 266.801 847.573 268.262C845.929 269.724 843.646 270.454 840.723 270.454H810.583ZM927.031 270.454C925.204 270.454 923.652 269.815 922.373 268.536C921.094 267.258 920.455 265.705 920.455 263.878V134.55C920.455 132.724 921.094 131.171 922.373 129.892C923.652 128.614 925.204 127.974 927.031 127.974H949.773C951.782 127.974 953.335 128.614 954.431 129.892C955.71 131.171 956.349 132.724 956.349 134.55V263.878C956.349 265.705 955.71 267.258 954.431 268.536C953.335 269.815 951.782 270.454 949.773 270.454H927.031ZM925.935 104.41C923.926 104.41 922.282 103.862 921.003 102.766C919.907 101.488 919.359 99.8437 919.359 97.8343V78.1063C919.359 76.2797 919.907 74.727 921.003 73.4483C922.282 72.1697 923.926 71.5303 925.935 71.5303H950.869C952.878 71.5303 954.522 72.1697 955.801 73.4483C957.08 74.727 957.719 76.2797 957.719 78.1063V97.8343C957.719 99.8437 957.08 101.488 955.801 102.766C954.522 103.862 952.878 104.41 950.869 104.41H925.935ZM1057.91 273.194C1047.32 273.194 1038.46 271.368 1031.33 267.714C1024.39 264.061 1018.64 259.403 1014.07 253.74V263.878C1014.07 265.705 1013.43 267.258 1012.15 268.536C1011.06 269.815 1009.51 270.454 1007.5 270.454H985.851C984.024 270.454 982.472 269.815 981.193 268.536C979.914 267.258 979.275 265.705 979.275 263.878V82.4903C979.275 80.6637 979.914 79.111 981.193 77.8323C982.472 76.5537 984.024 75.9143 985.851 75.9143H1009.14C1011.15 75.9143 1012.7 76.5537 1013.8 77.8323C1015.08 79.111 1015.72 80.6637 1015.72 82.4903V143.318C1020.28 138.021 1025.95 133.728 1032.7 130.44C1039.65 126.97 1048.05 125.234 1057.91 125.234C1067.59 125.234 1076 126.878 1083.12 130.166C1090.24 133.454 1096.18 138.112 1100.93 144.14C1105.86 149.986 1109.61 156.836 1112.17 164.69C1114.72 172.545 1116.09 181.039 1116.28 190.172C1116.46 193.46 1116.55 196.474 1116.55 199.214C1116.55 201.772 1116.46 204.694 1116.28 207.982C1115.91 217.481 1114.45 226.249 1111.89 234.286C1109.33 242.141 1105.68 248.991 1100.93 254.836C1096.18 260.682 1090.24 265.248 1083.12 268.536C1076 271.642 1067.59 273.194 1057.91 273.194ZM1047.77 243.876C1055.63 243.876 1061.75 242.232 1066.13 238.944C1070.52 235.474 1073.62 230.998 1075.45 225.518C1077.46 220.038 1078.65 214.01 1079.01 207.434C1079.38 201.954 1079.38 196.474 1079.01 190.994C1078.65 184.418 1077.46 178.39 1075.45 172.91C1073.62 167.43 1070.52 163.046 1066.13 159.758C1061.75 156.288 1055.63 154.552 1047.77 154.552C1040.47 154.552 1034.53 156.196 1029.96 159.484C1025.4 162.772 1021.93 166.974 1019.55 172.088C1017.18 177.02 1015.9 182.226 1015.72 187.706C1015.53 190.994 1015.44 194.556 1015.44 198.392C1015.44 202.046 1015.53 205.516 1015.72 208.804C1016.08 214.467 1017.27 220.038 1019.28 225.518C1021.47 230.816 1024.85 235.2 1029.42 238.67C1034.17 242.141 1040.29 243.876 1047.77 243.876ZM1194.72 273.194C1174.44 273.194 1158.37 267.349 1146.49 255.658C1134.62 243.968 1128.23 227.345 1127.31 205.79C1127.13 203.964 1127.04 201.68 1127.04 198.94C1127.04 196.018 1127.13 193.734 1127.31 192.09C1128.04 178.39 1131.15 166.517 1136.63 156.47C1142.29 146.424 1150.05 138.752 1159.92 133.454C1169.78 127.974 1181.38 125.234 1194.72 125.234C1209.51 125.234 1221.93 128.34 1231.98 134.55C1242.03 140.578 1249.61 149.072 1254.72 160.032C1259.84 170.81 1262.39 183.322 1262.39 197.57V203.324C1262.39 205.151 1261.75 206.704 1260.48 207.982C1259.2 209.261 1257.55 209.9 1255.54 209.9H1164.58C1164.58 209.9 1164.58 210.174 1164.58 210.722C1164.58 211.27 1164.58 211.727 1164.58 212.092C1164.76 218.486 1165.95 224.422 1168.14 229.902C1170.51 235.2 1173.89 239.492 1178.28 242.78C1182.84 246.068 1188.23 247.712 1194.44 247.712C1199.56 247.712 1203.85 246.982 1207.32 245.52C1210.79 243.876 1213.62 242.05 1215.81 240.04C1218.01 238.031 1219.56 236.387 1220.47 235.108C1222.12 232.916 1223.39 231.638 1224.31 231.272C1225.4 230.724 1226.96 230.45 1228.97 230.45H1252.53C1254.36 230.45 1255.82 230.998 1256.91 232.094C1258.19 233.19 1258.74 234.56 1258.56 236.204C1258.38 239.127 1256.82 242.689 1253.9 246.89C1251.16 251.092 1247.14 255.202 1241.84 259.22C1236.55 263.239 1229.88 266.618 1221.84 269.358C1213.99 271.916 1204.95 273.194 1194.72 273.194ZM1164.58 186.884H1225.13V186.062C1225.13 178.938 1223.94 172.728 1221.57 167.43C1219.19 162.133 1215.72 157.932 1211.16 154.826C1206.59 151.721 1201.11 150.168 1194.72 150.168C1188.32 150.168 1182.84 151.721 1178.28 154.826C1173.71 157.932 1170.24 162.133 1167.86 167.43C1165.67 172.728 1164.58 178.938 1164.58 186.062V186.884Z" fill="#4B66E3"/>
</svg>
